# xmcd
#
# Track frame offsets:
#	150
#	21202
#	40342
#	60650
#	79593
#	97881
#	115331
#	134896
#	154866
#	203811
#	218158
#	237028
#	256190
#	273647
#	292390
#	314610
#	330737
#
# Disc length: 4657 seconds
#
# Revision: 0
# Processed by: cddbd v1.5.2PL0 Copyright (c) Steve Scherf et al.
# Submitted via: EasyCDDAExtractor 15.3.0.1
#
DISCID=03122f11
DTITLE=Ednita Nazario - Grandes Exitos
DYEAR=2011
DGENRE=Latin
TTITLE0=Lo Que Son Las Cosas
TTITLE1=Pensando Siempre En Ti
TTITLE2=Atada A Tu Volcan
TTITLE3=Te Sigo Esperando
TTITLE4=Por Ti Me Casare
TTITLE5=Un Corazon Hecho Pedazos
TTITLE6=Tanto Nos Amamos
TTITLE7=Quiero Que Me Hagas El Amor
TTITLE8=Medley De Exitos (Lo Mejor De Ti, La Prohibida, Mi Pequeño Amor, Conti
TTITLE8=go, Mi Amor, Cadenas De Fuego, A Que No Le Cuentas)
TTITLE9=Mirame
TTITLE10=Mas Que Un Amigo
TTITLE11=Como Antes
TTITLE12=Quien Te Robo El Corazon
TTITLE13=Despues De Tanto
TTITLE14=Tu Sabes Bien
TTITLE15=No Voy A Llorar
TTITLE16=Dime Tu
EXTD=
EXTT0=
EXTT1=
EXTT2=
EXTT3=
EXTT4=
EXTT5=
EXTT6=
EXTT7=
EXTT8=
EXTT9=
EXTT10=
EXTT11=
EXTT12=
EXTT13=
EXTT14=
EXTT15=
EXTT16=
PLAYORDER=
